<svg width="19" height="15" viewBox="0 0 19 15" fill="none" xmlns="http://www.w3.org/2000/svg">
<path d="M4.29604 0C5.53613 0 6.55478 0.397059 7.35198 1.19118C8.14918 1.95588 8.54778 2.97059 8.54778 4.23529C8.54778 4.82353 8.47397 5.41177 8.32634 6C8.17871 6.58824 7.86869 7.47059 7.39627 8.64706L4.82751 15H0.44289L2.34732 8.02941C1.60917 7.70588 1.03341 7.22059 0.620047 6.57353C0.206682 5.92647 0 5.14706 0 4.23529C0 2.97059 0.398601 1.95588 1.1958 1.19118C2.02253 0.397059 3.05594 0 4.29604 0ZM14.7483 0C15.9883 0 17.007 0.397059 17.8042 1.19118C18.6014 1.95588 19 2.97059 19 4.23529C19 4.82353 18.9262 5.41177 18.7786 6C18.6309 6.58824 18.3209 7.47059 17.8485 8.64706L15.2797 15H10.8951L12.7995 8.02941C12.0614 7.70588 11.4856 7.22059 11.0723 6.57353C10.6589 5.92647 10.4522 5.14706 10.4522 4.23529C10.4522 2.97059 10.8508 1.95588 11.648 1.19118C12.4747 0.397059 13.5082 0 14.7483 0Z" fill="#ECECEC"/>
</svg>
